<mxfile host="app.diagrams.net" agent="Mozilla/5.0 (Windows NT 10.0; Win64; x64) AppleWebKit/537.36 (KHTML, like Gecko) Chrome/131.0.0.0 Safari/537.36" version="24.9.1">
  <diagram name="Page-1" id="N8A9fwdolulNzTT7S4CC">
    <mxGraphModel dx="1195" dy="620" grid="1" gridSize="10" guides="1" tooltips="1" connect="1" arrows="1" fold="1" page="1" pageScale="1" pageWidth="827" pageHeight="1169" math="0" shadow="0">
      <root>
        <mxCell id="0" />
        <mxCell id="1" parent="0" />
        <mxCell id="oT2TBZkQEtrl8EU_ng7S-9" style="edgeStyle=orthogonalEdgeStyle;rounded=0;orthogonalLoop=1;jettySize=auto;html=1;" edge="1" parent="1" source="oT2TBZkQEtrl8EU_ng7S-1" target="oT2TBZkQEtrl8EU_ng7S-2">
          <mxGeometry relative="1" as="geometry">
            <Array as="points">
              <mxPoint x="440" y="270" />
              <mxPoint x="200" y="270" />
            </Array>
          </mxGeometry>
        </mxCell>
        <mxCell id="oT2TBZkQEtrl8EU_ng7S-10" style="edgeStyle=orthogonalEdgeStyle;rounded=0;orthogonalLoop=1;jettySize=auto;html=1;" edge="1" parent="1" source="oT2TBZkQEtrl8EU_ng7S-1" target="oT2TBZkQEtrl8EU_ng7S-3">
          <mxGeometry relative="1" as="geometry" />
        </mxCell>
        <mxCell id="oT2TBZkQEtrl8EU_ng7S-11" style="edgeStyle=orthogonalEdgeStyle;rounded=0;orthogonalLoop=1;jettySize=auto;html=1;entryX=0.5;entryY=0;entryDx=0;entryDy=0;" edge="1" parent="1" source="oT2TBZkQEtrl8EU_ng7S-1" target="oT2TBZkQEtrl8EU_ng7S-4">
          <mxGeometry relative="1" as="geometry">
            <Array as="points">
              <mxPoint x="440" y="270" />
              <mxPoint x="680" y="270" />
            </Array>
          </mxGeometry>
        </mxCell>
        <mxCell id="oT2TBZkQEtrl8EU_ng7S-1" value="ADMIN" style="rounded=0;whiteSpace=wrap;html=1;" vertex="1" parent="1">
          <mxGeometry x="380" y="180" width="120" height="60" as="geometry" />
        </mxCell>
        <mxCell id="oT2TBZkQEtrl8EU_ng7S-12" style="edgeStyle=orthogonalEdgeStyle;rounded=0;orthogonalLoop=1;jettySize=auto;html=1;entryX=0.333;entryY=0;entryDx=0;entryDy=0;entryPerimeter=0;exitX=0.333;exitY=1.006;exitDx=0;exitDy=0;exitPerimeter=0;" edge="1" parent="1" source="oT2TBZkQEtrl8EU_ng7S-2" target="oT2TBZkQEtrl8EU_ng7S-5">
          <mxGeometry relative="1" as="geometry">
            <mxPoint x="180" y="580" as="targetPoint" />
            <Array as="points" />
          </mxGeometry>
        </mxCell>
        <mxCell id="oT2TBZkQEtrl8EU_ng7S-15" value="MAKES" style="edgeLabel;html=1;align=center;verticalAlign=middle;resizable=0;points=[];" vertex="1" connectable="0" parent="oT2TBZkQEtrl8EU_ng7S-12">
          <mxGeometry x="-0.3786" y="-3" relative="1" as="geometry">
            <mxPoint x="3" y="-32" as="offset" />
          </mxGeometry>
        </mxCell>
        <mxCell id="oT2TBZkQEtrl8EU_ng7S-2" value="RENTER" style="rounded=0;whiteSpace=wrap;html=1;" vertex="1" parent="1">
          <mxGeometry x="140" y="310" width="120" height="60" as="geometry" />
        </mxCell>
        <mxCell id="oT2TBZkQEtrl8EU_ng7S-17" style="edgeStyle=orthogonalEdgeStyle;rounded=0;orthogonalLoop=1;jettySize=auto;html=1;entryX=0.672;entryY=0.006;entryDx=0;entryDy=0;entryPerimeter=0;" edge="1" parent="1" source="oT2TBZkQEtrl8EU_ng7S-3" target="oT2TBZkQEtrl8EU_ng7S-5">
          <mxGeometry relative="1" as="geometry">
            <Array as="points">
              <mxPoint x="440" y="420" />
              <mxPoint x="221" y="420" />
            </Array>
          </mxGeometry>
        </mxCell>
        <mxCell id="oT2TBZkQEtrl8EU_ng7S-18" value="RECEIVES" style="edgeLabel;html=1;align=center;verticalAlign=middle;resizable=0;points=[];" vertex="1" connectable="0" parent="oT2TBZkQEtrl8EU_ng7S-17">
          <mxGeometry x="0.4009" y="1" relative="1" as="geometry">
            <mxPoint x="98" y="-25" as="offset" />
          </mxGeometry>
        </mxCell>
        <mxCell id="oT2TBZkQEtrl8EU_ng7S-19" style="edgeStyle=orthogonalEdgeStyle;rounded=0;orthogonalLoop=1;jettySize=auto;html=1;" edge="1" parent="1" source="oT2TBZkQEtrl8EU_ng7S-3" target="oT2TBZkQEtrl8EU_ng7S-6">
          <mxGeometry relative="1" as="geometry">
            <Array as="points">
              <mxPoint x="440" y="470" />
              <mxPoint x="360" y="470" />
            </Array>
          </mxGeometry>
        </mxCell>
        <mxCell id="oT2TBZkQEtrl8EU_ng7S-20" value="BELONGS TO" style="edgeLabel;html=1;align=center;verticalAlign=middle;resizable=0;points=[];" vertex="1" connectable="0" parent="oT2TBZkQEtrl8EU_ng7S-19">
          <mxGeometry x="0.2" y="-1" relative="1" as="geometry">
            <mxPoint x="-12" y="41" as="offset" />
          </mxGeometry>
        </mxCell>
        <mxCell id="oT2TBZkQEtrl8EU_ng7S-3" value="STALL" style="rounded=0;whiteSpace=wrap;html=1;" vertex="1" parent="1">
          <mxGeometry x="380" y="310" width="120" height="60" as="geometry" />
        </mxCell>
        <mxCell id="oT2TBZkQEtrl8EU_ng7S-21" style="edgeStyle=orthogonalEdgeStyle;rounded=0;orthogonalLoop=1;jettySize=auto;html=1;entryX=0.5;entryY=0;entryDx=0;entryDy=0;" edge="1" parent="1" source="oT2TBZkQEtrl8EU_ng7S-4" target="oT2TBZkQEtrl8EU_ng7S-7">
          <mxGeometry relative="1" as="geometry">
            <Array as="points">
              <mxPoint x="680" y="450" />
              <mxPoint x="520" y="450" />
            </Array>
          </mxGeometry>
        </mxCell>
        <mxCell id="oT2TBZkQEtrl8EU_ng7S-22" style="edgeStyle=orthogonalEdgeStyle;rounded=0;orthogonalLoop=1;jettySize=auto;html=1;" edge="1" parent="1" source="oT2TBZkQEtrl8EU_ng7S-4" target="oT2TBZkQEtrl8EU_ng7S-8">
          <mxGeometry relative="1" as="geometry">
            <Array as="points">
              <mxPoint x="680" y="410" />
              <mxPoint x="680" y="410" />
            </Array>
          </mxGeometry>
        </mxCell>
        <mxCell id="oT2TBZkQEtrl8EU_ng7S-23" value="GENERATES" style="edgeLabel;html=1;align=center;verticalAlign=middle;resizable=0;points=[];" vertex="1" connectable="0" parent="oT2TBZkQEtrl8EU_ng7S-22">
          <mxGeometry x="-0.4214" y="1" relative="1" as="geometry">
            <mxPoint x="-1" y="23" as="offset" />
          </mxGeometry>
        </mxCell>
        <mxCell id="oT2TBZkQEtrl8EU_ng7S-4" value="REPORT" style="rounded=0;whiteSpace=wrap;html=1;" vertex="1" parent="1">
          <mxGeometry x="620" y="310" width="120" height="60" as="geometry" />
        </mxCell>
        <mxCell id="oT2TBZkQEtrl8EU_ng7S-5" value="PAYMENT" style="rounded=0;whiteSpace=wrap;html=1;" vertex="1" parent="1">
          <mxGeometry x="140" y="570" width="120" height="60" as="geometry" />
        </mxCell>
        <mxCell id="oT2TBZkQEtrl8EU_ng7S-6" value="STALL TYPE" style="rounded=0;whiteSpace=wrap;html=1;" vertex="1" parent="1">
          <mxGeometry x="300" y="570" width="120" height="60" as="geometry" />
        </mxCell>
        <mxCell id="oT2TBZkQEtrl8EU_ng7S-7" value="FINANCIAL SUMMARIES" style="rounded=0;whiteSpace=wrap;html=1;" vertex="1" parent="1">
          <mxGeometry x="460" y="570" width="120" height="60" as="geometry" />
        </mxCell>
        <mxCell id="oT2TBZkQEtrl8EU_ng7S-8" value="OCCUPANCY RATE" style="rounded=0;whiteSpace=wrap;html=1;" vertex="1" parent="1">
          <mxGeometry x="620" y="570" width="120" height="60" as="geometry" />
        </mxCell>
        <mxCell id="oT2TBZkQEtrl8EU_ng7S-24" value="RMS ERD" style="text;html=1;align=center;verticalAlign=middle;resizable=0;points=[];autosize=1;strokeColor=none;fillColor=none;" vertex="1" parent="1">
          <mxGeometry x="400" y="138" width="80" height="30" as="geometry" />
        </mxCell>
      </root>
    </mxGraphModel>
  </diagram>
</mxfile>
